# xmcd CD database file
#
# Track frame offsets:
#	150
#	25452
#	78974
#	126745
#	175639
#	219883
#
# Disc length: 3490 seconds
#
# Revision: 0
# Processed by: cddbd v1.5.2PL0 Copyright (c) Steve Scherf et al.
# Submitted via: CDex 1.51
#
DISCID=4a0da006
DTITLE=Zakir Hussain - Music of the Deserts
DYEAR=1900
DGENRE=New Age
TTITLE0=Sandstorm
TTITLE1=The Great Indian Desert
TTITLE2=Ladakh, The Ice Desert
TTITLE3=Desert Heartbeat
TTITLE4=Where Deserts Meet
TTITLE5=Nomads
EXTD=
EXTT0=
EXTT1=
EXTT2=
EXTT3=
EXTT4=
EXTT5=
PLAYORDER=
